<svg width="48" height="181" viewBox="0 0 48 181" fill="none" xmlns="http://www.w3.org/2000/svg">
<path opacity="0.05" d="M24.0654 0.239994C31.6174 0.239994 37.3454 3.12 41.2494 8.88C45.2174 14.64 47.2014 22.928 47.2014 33.744C47.2014 44.624 45.2174 52.976 41.2494 58.8C37.3454 64.56 31.6174 67.44 24.0654 67.44C16.5134 67.44 10.7534 64.56 6.78538 58.8C2.88138 52.976 0.929375 44.624 0.929375 33.744C0.929375 22.928 2.88138 14.64 6.78538 8.88C10.7534 3.12 16.5134 0.239994 24.0654 0.239994ZM24.0654 9.552C20.4174 9.552 17.7614 11.408 16.0974 15.12C14.4334 18.768 13.6014 24.976 13.6014 33.744C13.6014 42.576 14.4334 48.848 16.0974 52.56C17.7614 56.272 20.4174 58.128 24.0654 58.128C27.7134 58.128 30.3694 56.304 32.0334 52.656C33.6974 48.944 34.5294 42.64 34.5294 33.744C34.5294 24.912 33.6974 18.672 32.0334 15.024C30.3694 11.376 27.7134 9.552 24.0654 9.552ZM35.4706 116.392V181H23.3746V128.776L8.97463 137.512L3.59863 129.256L24.6226 116.392H35.4706Z" fill="#1B1818"/>
</svg>
